#!OML:ASF F:\VICON\USERDATA\INSTALL\rory3\rory3.ASF
:FULLY-SPECIFIED
:DEGREES
2241
root 1.91321 17.1524 -4.00873 363.448 29.0996 -354.575
lowerback 26.4273 -1.3408 -4.23465
upperback 7.53805 -2.81611 -2.65969
thorax -6.17525 -1.24238 0.363343
lowerneck -8.262 -11.3673 -13.7755
upperneck -5.06475 -14.0901 18.3187
head 2.24078 -6.72406 6.94026
rclavicle -3.77691e-015 7.15625e-015
rhumerus -25.0225 19.7914 -79.8277
rradius 56.0035
rwrist -10.485
rhand -27.9823 0.477514
rfingers 7.12502
rthumb -1.36882 -29.4978
lclavicle -3.77691e-015 7.15625e-015
lhumerus -28.1754 4.5223 70.5598
lradius 38.9839
lwrist -4.13297
lhand -28.7222 17.4408
lfingers 7.12502
lthumb -2.08337 47.4103
rfemur -39.4049 5.43607 8.28512
rtibia 57.884
rfoot -18.6127 -14.9486
rtoes -2.63998
lfemur -35.5083 8.03979 -19.2221
ltibia 51.6244
lfoot -17.2254 -2.59837
ltoes -6.38562
2242
root 1.93882 17.1934 -3.95453 363.523 28.7501 -354.364
lowerback 26.2087 -1.32623 -4.30901
upperback 7.35825 -2.82481 -2.69067
thorax -6.26506 -1.2466 0.371973
lowerneck -7.97898 -11.3307 -13.6789
upperneck -5.00666 -14.0838 18.1869
head 2.19188 -6.736 6.89874
rclavicle 1.45113e-014 7.95139e-016
rhumerus -25.5553 19.5542 -80.0326
rradius 55.8521
rwrist -10.4144
rhand -27.9578 0.371867
rfingers 7.12502
rthumb -1.34519 -29.6036
lclavicle 1.45113e-014 7.95139e-016
lhumerus -28.5986 4.37829 70.5419
lradius 38.8974
lwrist -4.11713
lhand -28.9729 17.5953
lfingers 7.12502
lthumb -2.32551 47.5623
rfemur -38.9768 5.78016 8.10364
rtibia 57.4439
rfoot -18.6443 -14.942
rtoes -2.48321
lfemur -34.8333 8.15595 -19.3741
ltibia 51.0163
lfoot -17.2775 -2.37992
ltoes -6.65406
2243
root 1.96435 17.2316 -3.9001 363.636 28.3717 -354.168
lowerback 25.9554 -1.31106 -4.40012
upperback 7.22547 -2.82859 -2.6931
thorax -6.28248 -1.25007 0.418183
lowerneck -7.86434 -11.2849 -13.5489
upperneck -5.00202 -14.0412 18.0441
head 2.14556 -6.72315 6.84583
rclavicle -1.98785e-014 -1.15295e-014
rhumerus -25.8846 19.3993 -80.129
rradius 55.6669
rwrist -10.4393
rhand -27.8451 0.494971
rfingers 7.12502
rthumb -1.23629 -29.4812
lclavicle -1.98785e-014 -1.15295e-014
lhumerus -28.8629 4.32743 70.5595
lradius 38.7707
lwrist -4.11277
lhand -29.2077 17.7088
lfingers 7.12502
lthumb -2.55234 47.6733
rfemur -38.6015 6.14587 7.94043
rtibia 56.9786
rfoot -18.6432 -14.9828
rtoes -2.5051
lfemur -34.2272 8.37303 -19.5295
ltibia 50.4295
lfoot -17.2892 -2.21542
ltoes -6.80565
2244
root 1.98785 17.2754 -3.84154 363.606 28.0043 -354.188
lowerback 25.6837 -1.34808 -4.36231
upperback 7.15885 -2.85656 -2.64373
thorax -6.22028 -1.26807 0.453388
lowerneck -7.92014 -11.2083 -13.5114
upperneck -4.93113 -13.9401 18.0164
head 2.15468 -6.66943 6.83825
rclavicle -2.10712e-014 2.38542e-015
rhumerus -26.065 19.3307 -80.2142
rradius 55.4288
rwrist -10.4126
rhand -27.6049 0.489247
rfingers 7.12502
rthumb -1.00434 -29.4881
lclavicle -2.10712e-014 2.38542e-015
lhumerus -29.0231 4.47618 70.5098
lradius 38.5951
lwrist -4.05527
lhand -29.2667 17.5495
lfingers 7.12502
lthumb -2.60923 47.5133
rfemur -38.1322 6.61261 8.02003
rtibia 56.4568
rfoot -18.6318 -15.1384
rtoes -2.73252
lfemur -33.5671 8.50759 -19.427
ltibia 49.8472
lfoot -17.3189 -2.01819
ltoes -6.56992
2245
root 2.0074 17.3225 -3.77822 363.462 27.6767 -354.474
lowerback 25.2706 -1.40088 -4.145
upperback 7.10482 -2.84623 -2.50587
thorax -6.07963 -1.27157 0.467683
lowerneck -7.85492 -11.1401 -13.6156
upperneck -4.88952 -13.8512 18.0527
head 2.15356 -6.62564 6.8776
rclavicle 2.08724e-014 -3.06128e-014
rhumerus -26.3224 19.1998 -80.3075
rradius 55.186
rwrist -10.3174
rhand -27.5728 0.446602
rfingers 7.12502
rthumb -0.973329 -29.5309
lclavicle 2.08724e-014 -3.06128e-014
lhumerus -29.2095 4.67425 70.4997
lradius 38.4149
lwrist -4.01094
lhand -29.2761 17.1252
lfingers 7.12502
lthumb -2.61836 47.0888
rfemur -37.6357 7.18286 8.36712
rtibia 55.8869
rfoot -18.6507 -15.3788
rtoes -2.70779
lfemur -32.9209 8.5557 -19.0255
ltibia 49.2634
lfoot -17.3147 -1.76504
ltoes -6.16892
2246
root 2.02799 17.3678 -3.72153 363.407 27.3267 -354.664
lowerback 24.8806 -1.45789 -3.8991
upperback 7.01737 -2.84467 -2.42927
thorax -5.9912 -1.27753 0.402239
lowerneck -7.76776 -11.1161 -13.6159
upperneck -4.83285 -13.8333 17.9993
head 2.1483 -6.6202 6.86622
rclavicle -1.33186e-014 -2.14687e-014
rhumerus -26.6139 19.0144 -80.4278
rradius 54.9279
rwrist -10.1473
rhand -27.6436 0.584774
rfingers 7.12502
rthumb -1.04169 -29.3924
lclavicle -1.33186e-014 -2.14687e-014
lhumerus -29.4062 4.70706 70.5203
lradius 38.2758
lwrist -3.81186
lhand -29.4721 16.9408
lfingers 7.12502
lthumb -2.80766 46.902
rfemur -37.2108 7.70751 8.58835
rtibia 55.2948
rfoot -18.5695 -15.5649
rtoes -2.74738
lfemur -32.3261 8.55615 -18.7482
ltibia 48.6591
lfoot -17.2468 -1.39398
ltoes -6.17192
2247
root 2.05457 17.4114 -3.67186 363.536 26.9244 -354.561
lowerback 24.5882 -1.51552 -3.80408
upperback 6.83818 -2.89875 -2.43504
thorax -6.04647 -1.30571 0.35286
lowerneck -7.6735 -11.0529 -13.6708
upperneck -4.67466 -13.7699 17.951
head 2.16879 -6.58963 6.86761
rclavicle -7.95139e-015 -2.22639e-014
rhumerus -27.0027 18.9493 -80.5535
rradius 54.6575
rwrist -9.98015
rhand -27.5111 0.641495
rfingers 7.12502
rthumb -0.913683 -29.3363
lclavicle -7.95139e-015 -2.22639e-014
lhumerus -29.7238 4.61492 70.5617
lradius 38.226
lwrist -3.47408
lhand -29.7542 17.7634
lfingers 7.12502
lthumb -3.08011 47.7209
rfemur -36.8617 8.10355 8.49248
rtibia 54.7082
rfoot -18.406 -15.6502
rtoes -3.0388
lfemur -31.7621 8.5183 -18.8111
ltibia 48.0226
lfoot -17.1913 -0.956747
ltoes -6.28632
2248
root 2.0833 17.4571 -3.61482 363.657 26.4989 -354.455
lowerback 24.2152 -1.56567 -3.78794
upperback 6.68163 -2.95425 -2.40565
thorax -6.02903 -1.33616 0.38381
lowerneck -7.63258 -10.9683 -13.7317
upperneck -4.50451 -13.6709 17.869
head 2.19315 -6.53887 6.86054
rclavicle -4.01545e-014 6.40087e-014
rhumerus -27.3534 18.9751 -80.6317
rradius 54.4028
rwrist -9.83581
rhand -27.3898 0.341863
rfingers 7.12502
rthumb -0.79659 -29.6364
lclavicle -4.01545e-014 6.40087e-014
lhumerus -30.0626 4.69147 70.5922
lradius 38.1686
lwrist -3.2696
lhand -29.8631 18.3928
lfingers 7.12502
lthumb -3.18525 48.3488
rfemur -36.4727 8.50236 8.41075
rtibia 54.1262
rfoot -18.3156 -15.7372
rtoes -3.23464
lfemur -31.1427 8.49977 -18.8745
ltibia 47.3611
lfoot -17.1798 -0.565875
ltoes -5.88431
2249
root 2.10676 17.5024 -3.55236 363.673 26.0758 -354.424
lowerback 23.8332 -1.62356 -3.75343
upperback 6.62317 -3.00973 -2.39929
thorax -5.90057 -1.36872 0.376587
lowerneck -7.79225 -10.9397 -13.5632
upperneck -4.22495 -13.6531 17.6728
head 2.26792 -6.52118 6.76128
rclavicle 3.20043e-014 5.1684e-015
rhumerus -27.5396 18.8774 -80.7632
rradius 54.1091
rwrist -9.66395
rhand -27.3347 0.186302
rfingers 7.12502
rthumb -0.743354 -29.7921
lclavicle 3.20043e-014 5.1684e-015
lhumerus -30.3276 4.85215 70.5052
lradius 38.1565
lwrist -3.16248
lhand -30.0129 18.1666
lfingers 7.12502
lthumb -3.32989 48.1204
rfemur -36.0019 9.00632 8.4252
rtibia 53.5439
rfoot -18.2281 -15.8727
rtoes -3.43113
lfemur -30.4397 8.48566 -18.8334
ltibia 46.6873
lfoot -17.134 -0.0984575
ltoes -5.70976
2250
root 2.12835 17.5445 -3.49207 363.649 25.6478 -354.43
lowerback 23.4673 -1.7082 -3.65822
upperback 6.5576 -3.08919 -2.41641
thorax -5.7916 -1.41264 0.316176
lowerneck -7.81852 -10.8671 -13.4394
upperneck -3.94409 -13.5896 17.5563
head 2.32546 -6.48584 6.70512
rclavicle 5.02925e-014 2.78299e-015
rhumerus -27.7348 18.7924 -80.9509
rradius 53.6885
rwrist -9.53958
rhand -27.2695 0.577985
rfingers 7.12502
rthumb -0.680399 -29.4007
lclavicle 5.02925e-014 2.78299e-015
lhumerus -30.5949 5.09609 70.3313
lradius 38.0611
lwrist -3.16055
lhand -30.1385 18.0028
lfingers 7.12502
lthumb -3.45118 47.9546
rfemur -35.5304 9.50994 8.48009
rtibia 52.9539
rfoot -18.1119 -15.9849
rtoes -3.42512
lfemur -29.7269 8.4722 -18.7538
ltibia 45.9989
lfoot -17.0029 0.476749
ltoes -6.4746
